<?xml version="1.0" encoding="UTF-8"?>
<!DOCTYPE svg PUBLIC "-//W3C//DTD SVG 1.1//EN" "http://www.w3.org/Graphics/SVG/1.1/DTD/svg11.dtd">
<svg xmlns="http://www.w3.org/2000/svg" version="1.1" width="540px" height="540px" style="shape-rendering:geometricPrecision; text-rendering:geometricPrecision; image-rendering:optimizeQuality; fill-rule:evenodd; clip-rule:evenodd" xmlns:xlink="http://www.w3.org/1999/xlink">
<g><path style="opacity:0.004" fill="#fefffe" d="M 245.5,2.5 C 246.946,1.38705 248.613,1.22039 250.5,2C 248.866,2.49351 247.199,2.66018 245.5,2.5 Z"/></g>
<g><path style="opacity:0.092" fill="#8a8a8b" d="M 274.5,2.5 C 271.167,2.5 267.833,2.5 264.5,2.5C 265.694,1.22275 267.36,0.556082 269.5,0.5C 271.64,0.556082 273.306,1.22275 274.5,2.5 Z"/></g>
<g><path style="opacity:0.004" fill="#fefffe" d="M 288.5,2.5 C 289.601,1.40168 290.934,1.23502 292.5,2C 291.207,2.49001 289.873,2.65668 288.5,2.5 Z"/></g>
<g><path style="opacity:0.005" fill="#d6d6d6" d="M 245.5,2.5 C 245.5,2.83333 245.5,3.16667 245.5,3.5C 237.5,3.16667 237.5,2.83333 245.5,2.5 Z"/></g>
<g><path style="opacity:0.634" fill="#c0c0c1" d="M 264.5,2.5 C 267.833,2.5 271.167,2.5 274.5,2.5C 280.857,2.4763 287.19,2.80963 293.5,3.5C 293.5,3.83333 293.5,4.16667 293.5,4.5C 277.502,3.18677 261.502,3.18677 245.5,4.5C 245.5,4.16667 245.5,3.83333 245.5,3.5C 251.81,2.80963 258.143,2.4763 264.5,2.5 Z"/></g>
<g><path style="opacity:0.006" fill="#cfcfcf" d="M 293.5,3.5 C 294.946,2.38705 296.613,2.22039 298.5,3C 296.866,3.49351 295.199,3.66018 293.5,3.5 Z"/></g>
<g><path style="opacity:0.999" fill="#fcfcfc" d="M 245.5,4.5 C 261.502,3.18677 277.502,3.18677 293.5,4.5C 299.73,2.79183 305.73,3.4585 311.5,6.5C 313.123,5.52437 314.457,6.02437 315.5,8C 318.04,9.11117 320.54,9.27784 323,8.5C 327.836,9.99498 332.67,12.3283 337.5,15.5C 338.107,15.3764 338.44,15.0431 338.5,14.5C 340.997,14.8057 343.33,16.139 345.5,18.5C 346.086,18.2907 346.586,17.9574 347,17.5C 347.278,18.4158 347.778,19.0825 348.5,19.5C 351.509,20.1122 354.342,21.7789 357,24.5C 357.977,23.2264 358.811,23.2264 359.5,24.5C 358.167,24.8333 358.167,25.1667 359.5,25.5C 366.425,28.576 372.591,32.9093 378,38.5C 378.333,38.1667 378.667,37.8333 379,37.5C 385.553,43.2066 392.053,49.04 398.5,55C 399.872,55.4017 401.205,55.9017 402.5,56.5C 407.566,53.357 413.566,51.0237 420.5,49.5C 427.586,45.936 433.586,40.936 438.5,34.5C 439.281,35.7287 439.781,37.062 440,38.5C 440.383,37.944 440.883,37.6107 441.5,37.5C 441.063,39.0744 440.063,40.2411 438.5,41C 438.957,41.414 439.291,41.914 439.5,42.5C 437.341,46.8194 435.007,50.3194 432.5,53C 432.833,53.3333 433.167,53.6667 433.5,54C 431.235,55.7581 429.568,57.9248 428.5,60.5C 427.833,60.5 427.5,60.8333 427.5,61.5C 426.167,61.8333 426.167,62.1667 427.5,62.5C 424.012,68.6294 419.679,74.1294 414.5,79C 414.833,79.3333 415.167,79.6667 415.5,80C 413.503,81.1932 411.836,82.6932 410.5,84.5C 403.248,92.3803 396.082,100.38 389,108.5C 388.667,108.167 388.333,107.833 388,107.5C 384.58,111.09 381.08,114.424 377.5,117.5C 376.167,117.833 376.167,118.167 377.5,118.5C 371.136,123.459 364.969,128.792 359,134.5C 358.667,134.167 358.333,133.833 358,133.5C 356.062,136.876 353.229,138.876 349.5,139.5C 349.649,140.552 349.483,141.552 349,142.5C 348.667,142.167 348.333,141.833 348,141.5C 347.558,143.679 346.558,144.345 345,143.5C 344.558,145.679 343.558,146.345 342,145.5C 339.758,146.937 337.425,148.937 335,151.5C 334.667,151.167 334.333,150.833 334,150.5C 330.964,153.446 328.131,155.779 325.5,157.5C 325.167,156.167 324.833,156.167 324.5,157.5C 323.733,158.172 323.066,159.005 322.5,160C 321.551,160.617 320.718,160.451 320,159.5C 319.28,161.056 318.113,162.056 316.5,162.5C 316.167,161.167 315.833,161.167 315.5,162.5C 314.833,162.5 314.5,162.833 314.5,163.5C 311.525,164.655 308.858,166.322 306.5,168.5C 303.876,167.884 301.709,168.884 300,171.5C 299.292,170.619 298.458,169.953 297.5,169.5C 293.755,167.791 290.088,165.791 286.5,163.5C 284.677,161.402 282.511,161.068 280,162.5C 276.563,161.513 273.063,160.846 269.5,160.5C 264.273,161.497 259.273,162.163 254.5,162.5C 253.508,162.328 252.842,162.662 252.5,163.5C 249.475,164.765 246.642,166.432 244,168.5C 243.667,168.167 243.333,167.833 243,167.5C 241.667,168.833 240.333,170.167 239,171.5C 238.184,170.177 237.017,169.511 235.5,169.5C 231.751,168.446 228.084,166.446 224.5,163.5C 223.745,161.534 222.579,161.2 221,162.5C 218.971,160.967 217.138,159.301 215.5,157.5C 212.68,155.255 209.68,153.255 206.5,151.5C 202.464,150.98 199.297,148.98 197,145.5C 196.667,145.833 196.333,146.167 196,146.5C 194,145.167 192.333,143.5 191,141.5C 190.086,142.654 189.253,142.487 188.5,141C 188.833,140.667 189.167,140.333 189.5,140C 186.119,139.447 183.785,137.614 182.5,134.5C 176.205,128.359 169.538,122.692 162.5,117.5C 161.833,117.5 161.167,117.5 160.5,117.5C 160.5,117.167 160.5,116.833 160.5,116.5C 159.118,114.451 157.452,112.785 155.5,111.5C 154.833,111.5 154.5,111.833 154.5,112.5C 148.856,107.188 143.523,101.521 138.5,95.5C 138.167,94.1667 137.833,94.1667 137.5,95.5C 131.62,88.9519 125.786,82.2852 120,75.5C 117.303,70.0832 114.136,65.0832 110.5,60.5C 110.167,59.1667 109.833,59.1667 109.5,60.5C 107.787,57.1405 106.121,53.8071 104.5,50.5C 104.5,50.1667 104.5,49.8333 104.5,49.5C 102.84,45.9932 101.173,42.6599 99.5,39.5C 99.5,38.8333 99.1667,38.5 98.5,38.5C 98.5,38.1667 98.5,37.8333 98.5,37.5C 97.9862,35.4884 97.8195,33.4884 98,31.5C 98.3826,32.056 98.8826,32.3893 99.5,32.5C 100.167,32.5 100.5,32.1667 100.5,31.5C 104.051,35.233 107.551,39.233 111,43.5C 111.333,43.1667 111.667,42.8333 112,42.5C 113.214,44.0488 114.714,45.2155 116.5,46C 116.884,46.9506 117.217,47.7839 117.5,48.5C 120.096,51.4758 123.43,53.4758 127.5,54.5C 127.833,54.5 128.167,54.5 128.5,54.5C 129.347,55.9663 130.68,56.7996 132.5,57C 135.167,57.6667 137.833,57.6667 140.5,57C 147.337,50.9953 154.004,44.8287 160.5,38.5C 165.289,33.205 170.789,28.8717 177,25.5C 178.016,26.6341 178.683,26.3008 179,24.5C 179.333,24.8333 179.667,25.1667 180,25.5C 182.258,22.701 184.925,21.3677 188,21.5C 188.995,20.9341 189.828,20.2674 190.5,19.5C 193.223,17.7188 196.057,16.0521 199,14.5C 199.671,15.2524 200.504,15.5858 201.5,15.5C 206.136,14.6067 210.636,13.2733 215,11.5C 215.483,10.552 215.649,9.55198 215.5,8.5C 216.961,9.68566 218.295,9.68566 219.5,8.5C 221.981,8.67655 223.814,7.67655 225,5.5C 225.561,6.02186 226.228,6.3552 227,6.5C 230.149,5.42153 233.316,4.42153 236.5,3.5C 239.421,4.40661 242.421,4.73994 245.5,4.5 Z"/></g>
<g><path style="opacity:0.004" fill="#fefffe" d="M 219.5,8.5 C 218.761,8.63101 218.094,8.46434 217.5,8C 218.437,7.30831 219.103,7.47498 219.5,8.5 Z"/></g>
<g><path style="opacity:0.004" fill="#fefffe" d="M 201.5,14.5 C 200.833,13.1667 200.833,13.1667 201.5,14.5 Z"/></g>
<g><path style="opacity:0.6" fill="#c1c1c2" d="M 215.5,8.5 C 215.649,9.55198 215.483,10.552 215,11.5C 210.636,13.2733 206.136,14.6067 201.5,15.5C 201.5,15.1667 201.5,14.8333 201.5,14.5C 205.615,12.928 209.282,11.2613 212.5,9.5C 213.086,9.70931 213.586,10.0426 214,10.5C 214.278,9.5842 214.778,8.91753 215.5,8.5 Z"/></g>
<g><path style="opacity:0.004" fill="#fefffe" d="M 338.5,14.5 C 337.833,13.1667 337.833,13.1667 338.5,14.5 Z"/></g>
<g><path style="opacity:0.004" fill="#fefffe" d="M 190.5,19.5 C 189.833,18.1667 189.833,18.1667 190.5,19.5 Z"/></g>
<g><path style="opacity:0.004" fill="#fefffe" d="M 348.5,18.5 C 349.833,19.1667 349.833,19.1667 348.5,18.5 Z"/></g>
<g><path style="opacity:0.004" fill="#fefffe" d="M 359.5,24.5 C 360.833,25.1667 360.833,25.1667 359.5,24.5 Z"/></g>
<g><path style="opacity:0.412" fill="#a1a1a3" d="M 100.5,31.5 C 99.8333,31.5 99.5,31.8333 99.5,32.5C 98.8826,32.3893 98.3826,32.056 98,31.5C 97.8195,33.4884 97.9862,35.4884 98.5,37.5C 95.8193,34.8082 94.4859,31.4748 94.5,27.5C 97.2651,27.7095 99.2651,29.0429 100.5,31.5 Z"/></g>
<g><path style="opacity:0.902" fill="#b6b6b8" d="M 441.5,37.5 C 440.883,37.6107 440.383,37.944 440,38.5C 439.781,37.062 439.281,35.7287 438.5,34.5C 433.586,40.936 427.586,45.936 420.5,49.5C 420.5,49.1667 420.5,48.8333 420.5,48.5C 423.438,46.066 426.271,43.3993 429,40.5C 429.333,40.8333 429.667,41.1667 430,41.5C 433.833,37 437.667,32.5 441.5,28C 444.47,28.6164 444.804,29.9498 442.5,32C 442.957,32.414 443.291,32.914 443.5,33.5C 442.37,34.6223 441.703,35.9557 441.5,37.5 Z"/></g>
<g><path style="opacity:0.004" fill="#fefffe" d="M 98.5,38.5 C 97.8333,39.1667 97.8333,39.1667 98.5,38.5 Z"/></g>
<g><path style="opacity:0.082" fill="#a9a9a9" d="M 99.5,39.5 C 101.173,42.6599 102.84,45.9932 104.5,49.5C 101.118,46.7399 99.4514,43.4065 99.5,39.5 Z"/></g>
<g><path style="opacity:0.004" fill="#fefffe" d="M 118.5,47.5 C 119.833,48.1667 119.833,48.1667 118.5,47.5 Z"/></g>
<g><path style="opacity:0.004" fill="#fefffe" d="M 420.5,48.5 C 419.833,47.1667 419.833,47.1667 420.5,48.5 Z"/></g>
<g><path style="opacity:0.004" fill="#fefffe" d="M 104.5,50.5 C 103.833,51.1667 103.833,51.1667 104.5,50.5 Z"/></g>
<g><path style="opacity:0.157" fill="#a3a3a4" d="M 117.5,48.5 C 117.833,48.5 118.167,48.5 118.5,48.5C 121.984,50.1425 124.984,51.8092 127.5,53.5C 127.5,53.8333 127.5,54.1667 127.5,54.5C 123.43,53.4758 120.096,51.4758 117.5,48.5 Z"/></g>
<g><path style="opacity:0.004" fill="#fefffe" d="M 127.5,52.5 C 128.833,53.1667 128.833,53.1667 127.5,52.5 Z"/></g>
<g><path style="opacity:0.12" fill="#cccccd" d="M 160.5,38.5 C 154.004,44.8287 147.337,50.9953 140.5,57C 137.833,57.6667 135.167,57.6667 132.5,57C 130.68,56.7996 129.347,55.9663 128.5,54.5C 131.385,53.6723 134.051,54.339 136.5,56.5C 138.336,55.9724 140.003,55.3058 141.5,54.5C 144.116,51.5454 146.782,48.5454 149.5,45.5C 152.941,42.6479 156.608,40.3146 160.5,38.5 Z"/></g>
<g><path style="opacity:0.004" fill="#000000" d="M 141.5,54.5 C 140.833,53.1667 140.833,53.1667 141.5,54.5 Z"/></g>
<g><path style="opacity:0.004" fill="#fefffe" d="M 109.5,60.5 C 109.833,60.5 110.167,60.5 110.5,60.5C 110.315,61.1701 109.981,61.1701 109.5,60.5 Z"/></g>
<g><path style="opacity:0.004" fill="#fefffe" d="M 428.5,60.5 C 429.833,61.1667 429.833,61.1667 428.5,60.5 Z"/></g>
<g><path style="opacity:0.004" fill="#fefffe" d="M 427.5,61.5 C 427.833,61.5 428.167,61.5 428.5,61.5C 428.315,62.1701 427.981,62.1701 427.5,61.5 Z"/></g>
<g><path style="opacity:0.004" fill="#fefffe" d="M 410.5,84.5 C 411.833,85.1667 411.833,85.1667 410.5,84.5 Z"/></g>
<g><path style="opacity:0.004" fill="#fefffe" d="M 137.5,95.5 C 137.833,95.5 138.167,95.5 138.5,95.5C 138.315,96.1701 137.981,96.1701 137.5,95.5 Z"/></g>
<g><path style="opacity:0.004" fill="#fefffe" d="M 110.5,102.5 C 109.833,101.167 109.833,101.167 110.5,102.5 Z"/></g>
<g><path style="opacity:0.004" fill="#fefffe" d="M 428.5,101.5 C 429.833,102.167 429.833,102.167 428.5,101.5 Z"/></g>
<g><path style="opacity:0.999" fill="#fafafa" d="M 129.5,119.5 C 128.167,119.833 128.167,120.167 129.5,120.5C 131.532,121.478 133.198,122.978 134.5,125C 134.167,125.333 133.833,125.667 133.5,126C 134.381,126.708 135.047,127.542 135.5,128.5C 138.834,131.485 140.834,135.152 141.5,139.5C 142.86,141.802 142.193,143.468 139.5,144.5C 139.709,145.086 140.043,145.586 140.5,146C 138.415,149.335 136.748,152.835 135.5,156.5C 134.266,158.201 133.599,160.201 133.5,162.5C 134.511,169.835 134.677,177.168 134,184.5C 134.667,187.167 135.333,187.167 136,184.5C 136.595,185.899 136.428,187.232 135.5,188.5C 137.559,192.166 139.893,195.666 142.5,199C 141.833,199.333 141.167,199.667 140.5,200C 142.5,201.667 144.5,203.333 146.5,205C 146.167,205.333 145.833,205.667 145.5,206C 148.236,207.524 150.236,209.691 151.5,212.5C 152.107,212.376 152.44,212.043 152.5,211.5C 153.67,213.279 155.336,214.279 157.5,214.5C 157.119,216.942 157.786,217.609 159.5,216.5C 162.914,218.957 166.414,221.291 170,223.5C 171.104,223.949 172.771,223.949 175,223.5C 177.991,226.014 181.491,226.68 185.5,225.5C 186.976,227.571 188.976,228.571 191.5,228.5C 193.948,229.473 196.615,229.806 199.5,229.5C 197.967,238.066 197.134,246.733 197,255.5C 196.283,256.044 195.783,256.711 195.5,257.5C 195.5,257.833 195.5,258.167 195.5,258.5C 193.078,260.449 190.078,262.449 186.5,264.5C 186.167,263.167 185.833,263.167 185.5,264.5C 182.147,266.824 178.147,268.99 173.5,271C 172,271.833 170.833,273 170,274.5C 168.984,273.366 168.317,273.699 168,275.5C 167,275.5 166,275.5 165,275.5C 161.664,278.443 158.497,280.776 155.5,282.5C 155.167,281.167 154.833,281.167 154.5,282.5C 152.536,283.782 150.536,285.115 148.5,286.5C 147.078,285.223 146.078,285.557 145.5,287.5C 144.402,288.601 144.235,289.934 145,291.5C 146,291.5 147,291.5 148,291.5C 149.624,293.158 151.291,294.825 153,296.5C 153.414,296.043 153.914,295.709 154.5,295.5C 157.526,298.026 160.693,300.36 164,302.5C 164.333,302.167 164.667,301.833 165,301.5C 167.484,302.886 169.817,304.553 172,306.5C 172.333,306.167 172.667,305.833 173,305.5C 173.249,306.624 173.749,307.624 174.5,308.5C 175.107,308.376 175.44,308.043 175.5,307.5C 181.437,312.557 188.103,316.724 195.5,320C 202.957,327.389 209.291,335.056 214.5,343C 213.366,344.016 213.699,344.683 215.5,345C 215.167,345.333 214.833,345.667 214.5,346C 216.539,347.926 218.206,350.093 219.5,352.5C 218.167,352.833 218.167,353.167 219.5,353.5C 221.122,355.974 222.789,358.974 224.5,362.5C 223.167,362.833 223.167,363.167 224.5,363.5C 224.328,364.492 224.662,365.158 225.5,365.5C 227.044,368.661 229.044,372.327 231.5,376.5C 231.167,377.167 230.833,377.833 230.5,378.5C 232.668,380.832 234.335,383.499 235.5,386.5C 234.098,387.842 234.431,388.676 236.5,389C 235.209,390.292 235.209,391.458 236.5,392.5C 236.574,394.411 237.574,395.578 239.5,396C 238.978,398.289 239.645,400.456 241.5,402.5C 241.069,403.293 240.735,404.127 240.5,405C 241.509,405.355 242.176,406.188 242.5,407.5C 241.167,407.833 241.167,408.167 242.5,408.5C 244.13,412.438 245.797,416.438 247.5,420.5C 246.295,421.995 246.295,423.328 247.5,424.5C 247.369,425.239 247.536,425.906 248,426.5C 248.654,425.304 249.154,425.304 249.5,426.5C 249.167,427.167 248.833,427.833 248.5,428.5C 251.655,433.295 253.322,438.295 253.5,443.5C 253.369,444.239 253.536,444.906 254,445.5C 254.654,444.304 255.154,444.304 255.5,445.5C 254.998,446.716 254.665,447.883 254.5,449C 256.808,450.588 257.475,452.588 256.5,455C 257.823,455.816 258.489,456.983 258.5,458.5C 257.167,459.167 257.167,459.833 258.5,460.5C 258.263,461.791 258.596,462.791 259.5,463.5C 260.091,464.151 260.757,464.818 261.5,465.5C 260.998,466.716 260.665,467.883 260.5,469C 261.87,470.441 262.87,472.108 263.5,474C 264.083,475.619 264.083,477.452 263.5,479.5C 264.167,479.833 264.833,480.167 265.5,480.5C 265.167,481.167 264.833,481.833 264.5,482.5C 265.167,482.833 265.833,483.167 266.5,483.5C 265.098,484.842 265.431,485.676 267.5,486C 267.059,488.453 267.559,490.953 269,493.5C 270.879,491.473 272.046,489.14 272.5,486.5C 273.404,485.791 273.737,484.791 273.5,483.5C 274.705,482.328 274.705,480.995 273.5,479.5C 275.836,473.495 278.17,467.495 280.5,461.5C 279.58,458.734 280.246,456.234 282.5,454C 282.167,453 281.833,452 281.5,451C 284.228,449.569 284.895,447.569 283.5,445C 283.944,443.238 284.444,443.405 285,445.5C 285.684,444.216 285.517,443.049 284.5,442C 286.807,441.646 287.141,440.646 285.5,439C 287.435,434.474 289.102,430.307 290.5,426.5C 291.791,425.458 291.791,424.292 290.5,423C 292.335,422.072 292.668,420.906 291.5,419.5C 292.742,415.1 294.742,411.1 297.5,407.5C 297.167,406.833 296.833,406.167 296.5,405.5C 298.226,401.957 299.893,398.457 301.5,395C 300.167,393.16 300.334,392.66 302,393.5C 302.354,389.294 303.854,385.294 306.5,381.5C 306.87,377.964 308.037,374.298 310,370.5C 311.758,369.531 312.258,368.364 311.5,367C 312.416,366.722 313.082,366.222 313.5,365.5C 314.24,362.309 315.907,359.143 318.5,356C 317.366,354.984 317.699,354.317 319.5,354C 319.167,353.667 318.833,353.333 318.5,353C 320.716,350.07 322.549,346.903 324,343.5C 324.75,342.874 325.584,342.374 326.5,342C 326.167,341.667 325.833,341.333 325.5,341C 331.631,333.281 338.131,325.781 345,318.5C 345.333,318.833 345.667,319.167 346,319.5C 347.806,317.272 349.806,315.272 352,313.5C 352.333,313.833 352.667,314.167 353,314.5C 353.374,313.584 353.874,312.75 354.5,312C 357.787,311.384 360.621,309.884 363,307.5C 364.558,308.345 365.558,307.679 366,305.5C 366.333,305.833 366.667,306.167 367,306.5C 369.258,303.701 371.925,302.368 375,302.5C 377.488,300.257 380.154,298.257 383,296.5C 383.333,296.833 383.667,297.167 384,297.5C 385.961,295.026 388.294,293.026 391,291.5C 392,291.5 393,291.5 394,291.5C 394.765,289.934 394.598,288.601 393.5,287.5C 393.158,286.662 392.492,286.328 391.5,286.5C 391.167,285.167 390.833,285.167 390.5,286.5C 382.271,281.742 373.271,276.408 363.5,270.5C 363.167,269.167 362.833,269.167 362.5,270.5C 358.922,268.449 355.922,266.449 353.5,264.5C 350.413,263.947 347.913,262.28 346,259.5C 344.984,260.634 344.317,260.301 344,258.5C 342.984,259.634 342.317,259.301 342,257.5C 340.984,258.634 340.317,258.301 340,256.5C 338.742,250.812 338.576,245.146 339.5,239.5C 337.705,236.383 336.871,233.05 337,229.5C 341.08,228.7 345.247,228.2 349.5,228C 351.076,227.56 352.41,226.727 353.5,225.5C 357.017,226.342 360.351,225.675 363.5,223.5C 364.293,223.931 365.127,224.265 366,224.5C 367.011,224.108 367.511,223.441 367.5,222.5C 368.086,222.709 368.586,223.043 369,223.5C 375.878,218.996 382.711,214.496 389.5,210C 391.366,206.246 394.033,202.746 397.5,199.5C 397.759,196.969 399.093,194.636 401.5,192.5C 400.391,191.035 400.891,190.035 403,189.5C 402.333,185.131 403.167,180.964 405.5,177C 404.657,171.229 403.99,165.395 403.5,159.5C 404.434,156.493 403.434,153.993 400.5,152C 401.108,149.816 400.441,147.816 398.5,146C 398.833,145.667 399.167,145.333 399.5,145C 396.734,144.309 396.067,142.809 397.5,140.5C 396.687,139.186 395.687,138.019 394.5,137C 395.191,135.933 395.691,134.766 396,133.5C 398.125,131.609 400.791,129.609 404,127.5C 404.697,124.308 406.53,122.308 409.5,121.5C 409.351,120.448 409.517,119.448 410,118.5C 412.69,114.982 415.524,111.648 418.5,108.5C 421.144,107.856 422.811,106.189 423.5,103.5C 424.689,102.571 426.022,102.238 427.5,102.5C 427.833,102.5 428.167,102.5 428.5,102.5C 429.961,105.129 431.627,107.629 433.5,110C 432.226,110.977 432.226,111.811 433.5,112.5C 433.328,113.492 433.662,114.158 434.5,114.5C 436.83,118.276 438.497,121.943 439.5,125.5C 438.167,125.833 438.167,126.167 439.5,126.5C 441.605,131.22 443.605,136.053 445.5,141C 443.875,143.271 444.209,145.104 446.5,146.5C 449.188,155.543 450.521,164.543 450.5,173.5C 451.192,205.827 451.692,238.161 452,270.5C 454.152,273.831 453.985,276.998 451.5,280C 453.57,283.883 453.903,287.883 452.5,292C 454.483,295.214 454.816,298.547 453.5,302C 454.624,302.839 455.291,304.006 455.5,305.5C 454.621,308.812 454.454,312.145 455,315.5C 455.333,314.167 455.667,312.833 456,311.5C 455.76,315.008 455.927,318.341 456.5,321.5C 456.126,324.972 457.126,327.972 459.5,330.5C 459.291,331.086 458.957,331.586 458.5,332C 459.433,335.485 460.433,338.985 461.5,342.5C 460.418,344.673 460.418,346.673 461.5,348.5C 463.077,353.789 464.743,359.122 466.5,364.5C 465.282,365.803 465.615,366.803 467.5,367.5C 466.295,368.995 466.295,370.328 467.5,371.5C 467.328,372.492 467.662,373.158 468.5,373.5C 470.555,377.529 471.889,381.529 472.5,385.5C 471.167,386.167 471.167,386.833 472.5,387.5C 473.126,388.529 473.959,389.529 475,390.5C 475.684,391.784 475.517,392.951 474.5,394C 476.422,395.46 477.089,397.127 476.5,399C 477.167,399.667 477.833,400.333 478.5,401C 477.226,401.977 477.226,402.811 478.5,403.5C 481.179,408.158 483.179,412.824 484.5,417.5C 484.328,418.492 484.662,419.158 485.5,419.5C 486.906,421.578 488.239,423.745 489.5,426C 488.366,427.016 488.699,427.683 490.5,428C 489.944,428.383 489.611,428.883 489.5,429.5C 489.92,431.674 489.92,433.674 489.5,435.5C 488.06,434.048 486.394,433.048 484.5,432.5C 483.833,432.5 483.5,432.833 483.5,433.5C 476.874,428.874 470.54,423.874 464.5,418.5C 463.614,417.675 463.281,416.675 463.5,415.5C 459.361,411.532 455.027,407.699 450.5,404C 449.251,403.26 448.251,403.427 447.5,404.5C 446.251,402.864 444.584,401.697 442.5,401C 443.654,400.086 443.487,399.253 442,398.5C 441.667,398.833 441.333,399.167 441,399.5C 438.828,398.491 437.662,396.824 437.5,394.5C 435.61,394.703 434.11,394.037 433,392.5C 431.476,394.898 429.976,397.231 428.5,399.5C 428.167,398.167 427.833,398.167 427.5,399.5C 426.167,399.833 426.167,400.167 427.5,400.5C 422.212,409.336 416.545,418.336 410.5,427.5C 409.167,427.833 409.167,428.167 410.5,428.5C 406.482,432.887 403.149,437.887 400.5,443.5C 399.833,443.5 399.5,443.833 399.5,444.5C 398.167,444.833 398.167,445.167 399.5,445.5C 398.368,448.926 396.368,451.76 393.5,454C 393.5,455 393.5,456 393.5,457C 391.957,459.702 389.624,460.868 386.5,460.5C 386.167,459.167 385.833,459.167 385.5,460.5C 384.684,458.856 383.35,457.69 381.5,457C 382.654,456.086 382.487,455.253 381,454.5C 380.667,454.833 380.333,455.167 380,455.5C 375.724,451.25 372.057,447.25 369,443.5C 368.667,443.833 368.333,444.167 368,444.5C 361.243,436.585 354.077,429.252 346.5,422.5C 345.739,421.609 344.739,420.942 343.5,420.5C 341.551,422.297 339.884,424.297 338.5,426.5C 334.799,432.862 331.132,438.862 327.5,444.5C 325.715,448.07 323.882,451.736 322,455.5C 321.086,454.346 320.253,454.513 319.5,456C 319.957,456.414 320.291,456.914 320.5,457.5C 319.315,458.853 317.981,460.02 316.5,461C 317.634,462.016 317.301,462.683 315.5,463C 315.5,464 315.5,465 315.5,466C 313.612,468.707 311.612,471.207 309.5,473.5C 306.411,479.825 302.745,485.825 298.5,491.5C 297.167,491.833 297.167,492.167 298.5,492.5C 291.836,504.78 284.502,516.447 276.5,527.5C 275.833,527.5 275.5,527.833 275.5,528.5C 274.716,531.967 272.716,534.634 269.5,536.5C 268.205,535.902 266.872,535.402 265.5,535C 265.833,534.667 266.167,534.333 266.5,534C 265.167,532.333 263.833,530.667 262.5,529C 262.833,528.667 263.167,528.333 263.5,528C 262.07,525.517 259.903,523.017 257,520.5C 256.853,517.259 255.187,514.592 252,512.5C 251.383,511.551 251.549,510.718 252.5,510C 250.167,507.333 247.833,504.667 245.5,502C 245.833,501.667 246.167,501.333 246.5,501C 242.691,494.891 238.524,489.058 234,483.5C 232.752,479.453 230.919,475.786 228.5,472.5C 226.864,470.386 225.197,468.219 223.5,466C 223.5,465 223.5,464 223.5,463C 221.333,461.5 219.5,459.667 218,457.5C 217.383,456.551 217.549,455.718 218.5,455C 215.246,451.957 212.913,448.457 211.5,444.5C 209.683,441.85 207.683,439.35 205.5,437C 205.5,436 205.5,435 205.5,434C 202.798,431.602 201.131,429.102 200.5,426.5C 199.233,424.227 197.567,422.227 195.5,420.5C 191.322,424.179 187.322,428.012 183.5,432C 182.5,432.333 181.5,432.667 180.5,433C 177.575,438.095 173.575,441.928 168.5,444.5C 167.167,444.833 167.167,445.167 168.5,445.5C 165.473,449.194 162.14,452.527 158.5,455.5C 158.167,454.167 157.833,454.167 157.5,455.5C 156.833,455.5 156.5,455.833 156.5,456.5C 155.038,457.458 153.705,458.624 152.5,460C 150.365,460.635 148.365,460.301 146.5,459C 146.833,458.667 147.167,458.333 147.5,458C 144.844,456.997 143.844,455.33 144.5,453C 142.5,450.667 140.5,448.333 138.5,446C 139.833,444.16 139.666,443.66 138,444.5C 136.591,441.418 134.758,438.585 132.5,436C 132.833,435.667 133.167,435.333 133.5,435C 131.343,433.429 129.343,431.095 127.5,428C 127.833,427.667 128.167,427.333 128.5,427C 126.167,424 123.833,421 121.5,418C 122.345,416.442 121.679,415.442 119.5,415C 119.833,414.667 120.167,414.333 120.5,414C 118.833,413 117.5,411.667 116.5,410C 115.649,406.718 113.649,403.718 110.5,401C 111.774,400.023 111.774,399.189 110.5,398.5C 109.217,396.377 107.717,394.377 106,392.5C 103.522,394.811 100.356,396.978 96.5,399C 94.5479,401.074 92.7146,403.241 91,405.5C 89.1598,404.167 88.6598,404.334 89.5,406C 86.384,407.449 83.884,409.616 82,412.5C 81.6667,412.167 81.3333,411.833 81,411.5C 78.4131,414.167 75.7465,416.833 73,419.5C 72.6667,419.167 72.3333,418.833 72,418.5C 71.0934,420.609 69.5934,421.942 67.5,422.5C 66.0699,424.386 64.4032,426.053 62.5,427.5C 62.1667,426.167 61.8333,426.167 61.5,427.5C 60.8333,427.5 60.5,427.833 60.5,428.5C 57.8279,432.213 54.8279,434.879 51.5,436.5C 50.791,435.596 49.791,435.263 48.5,435.5C 48.5,434.167 48.5,432.833 48.5,431.5C 48.4841,429.371 49.1508,427.538 50.5,426C 50.1667,425.667 49.8333,425.333 49.5,425C 50.8333,423.667 52.1667,422.333 53.5,421C 51.203,419.84 51.5363,418.84 54.5,418C 54.0426,417.586 53.7093,417.086 53.5,416.5C 55.5346,414.062 57.2013,411.395 58.5,408.5C 57.0977,407.158 57.4311,406.324 59.5,406C 59.8346,404.836 59.8346,403.503 59.5,402C 61.0919,398.47 62.7585,394.97 64.5,391.5C 66.3197,385.763 68.3197,379.763 70.5,373.5C 70.6671,368.718 72.0004,363.551 74.5,358C 74.1667,357.667 73.8333,357.333 73.5,357C 76.3976,355.307 77.0643,352.974 75.5,350C 75.9444,348.238 76.4444,348.405 77,350.5C 76.5919,344.819 77.7585,339.319 80.5,334C 80.1932,332.318 79.8598,330.652 79.5,329C 82.6045,325.809 83.2712,322.142 81.5,318C 81.6667,317.167 81.8333,316.333 82,315.5C 82.3333,316.833 82.6667,318.167 83,319.5C 83.6066,316.798 83.4399,314.132 82.5,311.5C 84.2273,308.875 84.5607,306.208 83.5,303.5C 85.1624,301.249 85.4957,298.916 84.5,296.5C 85.7992,290.196 86.7992,283.863 87.5,277.5C 86.1828,262.819 85.5161,247.986 85.5,233C 85.6667,218.5 85.8333,204 86,189.5C 86.3333,214.833 86.6667,240.167 87,265.5C 87.4705,232.125 87.8038,198.792 88,165.5C 88.6543,166.696 89.1543,166.696 89.5,165.5C 88.7619,159.939 89.7619,154.606 92.5,149.5C 91.5721,148.232 91.4054,146.899 92,145.5C 92.3333,146.167 92.6667,146.833 93,147.5C 94.3983,145.186 94.565,142.853 93.5,140.5C 94.0253,139.808 94.6919,139.308 95.5,139C 95.2176,135.841 96.2176,132.841 98.5,130C 97.4829,128.951 97.3162,127.784 98,126.5C 98.9836,128.795 99.8169,128.461 100.5,125.5C 100.167,124.833 99.8333,124.167 99.5,123.5C 100.937,120.284 102.604,117.284 104.5,114.5C 105.774,113.811 105.774,112.977 104.5,112C 106.636,108.89 108.636,105.723 110.5,102.5C 111.156,101.722 111.989,101.056 113,100.5C 116.131,101.255 117.464,102.922 117,105.5C 117.667,104.167 118.333,104.167 119,105.5C 122.679,110.59 126.179,115.257 129.5,119.5 Z"/></g>
<g><path style="opacity:0.498" fill="#99999b" d="M 427.5,102.5 C 426.022,102.238 424.689,102.571 423.5,103.5C 422.811,106.189 421.144,107.856 418.5,108.5C 420.506,106.123 422.172,103.623 423.5,101C 425.463,100.156 426.796,100.656 427.5,102.5 Z"/></g>
<g><path style="opacity:0.004" fill="#fefffe" d="M 433.5,111.5 C 434.833,112.167 434.833,112.167 433.5,111.5 Z"/></g>
<g><path style="opacity:0.004" fill="#fefffe" d="M 154.5,112.5 C 154.833,112.5 155.167,112.5 155.5,112.5C 155.315,113.17 154.981,113.17 154.5,112.5 Z"/></g>
<g><path style="opacity:0.004" fill="#fefffe" d="M 104.5,114.5 C 103.833,113.167 103.833,113.167 104.5,114.5 Z"/></g>
<g><path style="opacity:0.173" fill="#868687" d="M 155.5,112.5 C 155.5,112.167 155.5,111.833 155.5,111.5C 157.452,112.785 159.118,114.451 160.5,116.5C 158.225,115.889 156.559,114.555 155.5,112.5 Z"/></g>
<g><path style="opacity:0.004" fill="#fefffe" d="M 434.5,113.5 C 435.833,114.167 435.833,114.167 434.5,113.5 Z"/></g>
<g><path style="opacity:0.004" fill="#fefffe" d="M 160.5,117.5 C 159.833,118.167 159.833,118.167 160.5,117.5 Z"/></g>
<g><path style="opacity:0.004" fill="#fefffe" d="M 377.5,117.5 C 378.833,118.167 378.833,118.167 377.5,117.5 Z"/></g>
<g><path style="opacity:0.004" fill="#8b8c8b" d="M 129.5,119.5 C 130.833,120.167 130.833,120.167 129.5,119.5 Z"/></g>
<g><path style="opacity:0.184" fill="#acacad" d="M 162.5,117.5 C 169.538,122.692 176.205,128.359 182.5,134.5C 181.448,134.649 180.448,134.483 179.5,134C 175.918,129.911 171.918,126.411 167.5,123.5C 167.167,122.167 166.833,122.167 166.5,123.5C 164.674,121.853 163.34,119.853 162.5,117.5 Z"/></g>
<g><path style="opacity:0.004" fill="#fefffe" d="M 166.5,123.5 C 166.833,123.5 167.167,123.5 167.5,123.5C 167.315,124.17 166.981,124.17 166.5,123.5 Z"/></g>
<g><path style="opacity:0.004" fill="#fefffe" d="M 439.5,125.5 C 440.833,126.167 440.833,126.167 439.5,125.5 Z"/></g>
<g><path style="opacity:0.49" fill="#a7a7a9" d="M 135.5,128.5 C 139.469,129.803 142.136,132.469 143.5,136.5C 143.547,138.038 142.88,139.038 141.5,139.5C 140.834,135.152 138.834,131.485 135.5,128.5 Z"/></g>
<g><path style="opacity:0.004" fill="#fefffe" d="M 92.5,142.5 C 93.8333,143.167 93.8333,143.167 92.5,142.5 Z"/></g>
<g><path style="opacity:0.004" fill="#fefffe" d="M 445.5,143.5 C 446.833,144.167 446.833,144.167 445.5,143.5 Z"/></g>
<g><path style="opacity:0.529" fill="#a0a0a2" d="M 206.5,151.5 C 209.68,153.255 212.68,155.255 215.5,157.5C 211.657,157.375 208.657,155.375 206.5,151.5 Z"/></g>
<g><path style="opacity:0.004" fill="#fefffe" d="M 165.5,154.5 C 166.833,155.167 166.833,155.167 165.5,154.5 Z"/></g>
<g><path style="opacity:0.004" fill="#fefffe" d="M 372.5,154.5 C 373.833,155.167 373.833,155.167 372.5,154.5 Z"/></g>
<g><path style="opacity:0.004" fill="#fefffe" d="M 401.5,155.5 C 402.833,156.167 402.833,156.167 401.5,155.5 Z"/></g>
<g><path style="opacity:0.004" fill="#fefffe" d="M 135.5,156.5 C 136.525,156.897 136.692,157.563 136,158.5C 135.536,157.906 135.369,157.239 135.5,156.5 Z"/></g>
<g><path style="opacity:0.118" fill="#a2a2a4" d="M 170.5,159.5 C 168.742,159.123 167.075,158.456 165.5,157.5C 164.675,159.36 163.675,161.026 162.5,162.5C 161.239,160.514 161.572,158.681 163.5,157C 165.521,156.86 167.355,156.693 169,156.5C 170.039,157.244 170.539,158.244 170.5,159.5 Z"/></g>
<g><path style="opacity:0.004" fill="#fefffe" d="M 324.5,157.5 C 324.833,157.5 325.167,157.5 325.5,157.5C 325.315,158.17 324.981,158.17 324.5,157.5 Z"/></g>
<g><path style="opacity:0.006" fill="#fefffe" d="M 403.5,159.5 C 402.475,159.103 402.308,158.437 403,157.5C 403.464,158.094 403.631,158.761 403.5,159.5 Z"/></g>
<g><path style="opacity:0.998" fill="#f5f5f5" d="M 170.5,159.5 C 171.397,160.598 172.23,160.598 173,159.5C 174.487,160.253 174.654,161.086 173.5,162C 175.848,162.346 177.681,163.513 179,165.5C 179.333,165.167 179.667,164.833 180,164.5C 180.333,165.5 180.667,166.5 181,167.5C 181.333,167.167 181.667,166.833 182,166.5C 184.426,168.452 186.926,170.119 189.5,171.5C 188.167,171.833 188.167,172.167 189.5,172.5C 190.189,173.774 191.023,173.774 192,172.5C 193.721,174.711 195.721,176.711 198,178.5C 199,178.5 200,178.5 201,178.5C 202.926,180.539 205.093,182.206 207.5,183.5C 211.537,184.688 215.204,186.688 218.5,189.5C 225.167,191.833 225.167,194.167 218.5,196.5C 217.833,196.5 217.5,196.833 217.5,197.5C 215.678,197.831 214.011,198.498 212.5,199.5C 201.967,199.76 191.301,199.093 180.5,197.5C 179.833,197.5 179.167,197.5 178.5,197.5C 177.48,196.046 176.313,195.713 175,196.5C 172.768,195.157 170.934,193.49 169.5,191.5C 168.167,189.833 166.833,188.167 165.5,186.5C 162.846,178.815 161.846,170.815 162.5,162.5C 163.675,161.026 164.675,159.36 165.5,157.5C 167.075,158.456 168.742,159.123 170.5,159.5 Z"/></g>
<g><path style="opacity:0.997" fill="#f4f4f4" d="M 376.5,163.5 C 376.833,163.5 377.167,163.5 377.5,163.5C 378.512,168.858 378.512,174.191 377.5,179.5C 376.634,182.223 375.467,184.89 374,187.5C 370.602,191.066 366.769,194.066 362.5,196.5C 362.167,195.167 361.833,195.167 361.5,196.5C 360.833,196.5 360.167,196.5 359.5,196.5C 354.348,198.263 349.015,199.263 343.5,199.5C 335.964,199.214 328.631,198.214 321.5,196.5C 320.833,196.5 320.167,196.5 319.5,196.5C 312.833,194.167 312.833,191.833 319.5,189.5C 323.22,187.95 326.553,185.783 329.5,183C 336.171,180.732 342.004,177.232 347,172.5C 348.016,173.634 348.683,173.301 349,171.5C 349.333,171.833 349.667,172.167 350,172.5C 352.029,169.404 354.862,167.738 358.5,167.5C 358.5,166.5 358.5,165.5 358.5,164.5C 360.592,164.439 362.092,163.439 363,161.5C 363.383,162.056 363.883,162.389 364.5,162.5C 367.689,161.486 370.522,159.82 373,157.5C 374.459,159.432 375.625,161.432 376.5,163.5 Z"/></g>
<g><path style="opacity:0.353" fill="#acacae" d="M 376.5,163.5 C 375.625,161.432 374.459,159.432 373,157.5C 370.522,159.82 367.689,161.486 364.5,162.5C 364.414,161.504 364.748,160.671 365.5,160C 367.589,158.293 369.922,157.126 372.5,156.5C 374.067,156.477 375.4,156.977 376.5,158C 377.785,159.312 377.785,161.145 376.5,163.5 Z"/></g>
<g><path style="opacity:0.004" fill="#fefffe" d="M 134.5,160.5 C 135.525,160.897 135.692,161.563 135,162.5C 134.536,161.906 134.369,161.239 134.5,160.5 Z"/></g>
<g><path style="opacity:0.004" fill="#fefffe" d="M 377.5,163.5 C 377.369,162.761 377.536,162.094 378,161.5C 378.692,162.437 378.525,163.103 377.5,163.5 Z"/></g>
<g><path style="opacity:0.004" fill="#fefffe" d="M 254.5,162.5 C 255.833,163.167 255.833,163.167 254.5,162.5 Z"/></g>
<g><path style="opacity:0.004" fill="#fefffe" d="M 315.5,162.5 C 315.833,162.5 316.167,162.5 316.5,162.5C 316.315,163.17 315.981,163.17 315.5,162.5 Z"/></g>
<g><path style="opacity:0.004" fill="#fefffe" d="M 224.5,163.5 C 223.833,164.167 223.833,164.167 224.5,163.5 Z"/></g>
<g><path style="opacity:0.004" fill="#fefffe" d="M 252.5,163.5 C 253.833,164.167 253.833,164.167 252.5,163.5 Z"/></g>
<g><path style="opacity:0.004" fill="#fefffe" d="M 286.5,163.5 C 286.103,164.525 285.437,164.692 284.5,164C 285.094,163.536 285.761,163.369 286.5,163.5 Z"/></g>
<g><path style="opacity:0.004" fill="#fefffe" d="M 314.5,163.5 C 314.833,163.5 315.167,163.5 315.5,163.5C 315.315,164.17 314.981,164.17 314.5,163.5 Z"/></g>
<g><path style="opacity:0.004" fill="#dbd5ff" d="M 159.5,164.5 C 160.525,164.897 160.692,165.563 160,166.5C 159.536,165.906 159.369,165.239 159.5,164.5 Z"/></g>
<g><path style="opacity:0.004" fill="#fefffe" d="M 450.5,173.5 C 450.338,171.473 450.505,169.473 451,167.5C 451.789,169.712 451.622,171.712 450.5,173.5 Z"/></g>
<g><path style="opacity:0.801" fill="#a9a9ab" d="M 162.5,162.5 C 161.846,170.815 162.846,178.815 165.5,186.5C 163.616,185.618 162.283,184.118 161.5,182C 161.957,181.586 162.291,181.086 162.5,180.5C 161.441,177.765 160.775,174.931 160.5,172C 161.517,168.789 161.517,165.622 160.5,162.5C 160.97,161.537 161.637,161.537 162.5,162.5 Z"/></g>
<g><path style="opacity:0.004" fill="#fefffe" d="M 235.5,169.5 C 234.833,170.167 234.833,170.167 235.5,169.5 Z"/></g>
<g><path style="opacity:0.004" fill="#fefffe" d="M 297.5,169.5 C 296.833,170.167 296.833,170.167 297.5,169.5 Z"/></g>
<g><path style="opacity:0.004" fill="#fefffe" d="M 189.5,171.5 C 190.833,172.167 190.833,172.167 189.5,171.5 Z"/></g>
<g><path style="opacity:0.004" fill="#fefffe" d="M 86.5,173.5 C 87.6291,175.628 87.7958,177.961 87,180.5C 86.5034,178.19 86.3367,175.857 86.5,173.5 Z"/></g>
<g><path style="opacity:0.004" fill="#fefffe" d="M 451.5,175.5 C 452.641,178.64 452.808,181.973 452,185.5C 451.502,182.183 451.335,178.85 451.5,175.5 Z"/></g>
<g><path style="opacity:0.004" fill="#fefffe" d="M 377.5,179.5 C 378.833,180.167 378.833,180.167 377.5,179.5 Z"/></g>
<g><path style="opacity:0.004" fill="#fefffe" d="M 134.5,181.5 C 135.525,181.897 135.692,182.563 135,183.5C 134.536,182.906 134.369,182.239 134.5,181.5 Z"/></g>
<g><path style="opacity:0.004" fill="#fefffe" d="M 207.5,182.5 C 208.833,183.167 208.833,183.167 207.5,182.5 Z"/></g>
<g><path style="opacity:0.227" fill="#939395" d="M 273.5,187.5 C 267.919,187.251 262.586,188.251 257.5,190.5C 260.814,187.498 264.814,185.831 269.5,185.5C 271.171,185.668 272.504,186.335 273.5,187.5 Z"/></g>
<g><path style="opacity:0.004" fill="#fefffe" d="M 279.5,187.5 C 280.833,188.167 280.833,188.167 279.5,187.5 Z"/></g>
<g><path style="opacity:0.004" fill="#fefffe" d="M 401.5,187.5 C 402.833,188.167 402.833,188.167 401.5,187.5 Z"/></g>
<g><path style="opacity:0.004" fill="#fefffe" d="M 218.5,189.5 C 218.897,188.475 219.563,188.308 220.5,189C 219.906,189.464 219.239,189.631 218.5,189.5 Z"/></g>
<g><path style="opacity:0.999" fill="#fafafa" d="M 279.5,188.5 C 279.842,189.338 280.508,189.672 281.5,189.5C 284.492,190.304 287.159,191.804 289.5,194C 291.667,197.5 294.5,200.333 298,202.5C 300.7,205.908 302.867,209.575 304.5,213.5C 307.95,217.678 309.45,222.344 309,227.5C 309.333,226.833 309.667,226.167 310,225.5C 311.796,228.081 311.963,230.748 310.5,233.5C 312.02,237.623 312.853,241.956 313,246.5C 313.333,254.5 313.667,262.5 314,270.5C 318.482,274.941 323.315,278.108 328.5,280C 330.048,283.265 332.382,284.598 335.5,284C 336.126,284.75 336.626,285.584 337,286.5C 337.333,286.167 337.667,285.833 338,285.5C 341.382,288.162 341.215,290.495 337.5,292.5C 337.167,291.167 336.833,291.167 336.5,292.5C 334.313,294.042 331.813,296.042 329,298.5C 328.667,298.167 328.333,297.833 328,297.5C 327.71,299.044 327.044,300.377 326,301.5C 325.667,301.167 325.333,300.833 325,300.5C 324.097,301.701 322.931,302.535 321.5,303C 316.41,308.011 311.91,313.511 308,319.5C 305.239,320.499 303.906,322.499 304,325.5C 302.064,327.828 300.231,330.162 298.5,332.5C 297.167,332.833 297.167,333.167 298.5,333.5C 297.474,336.372 295.807,338.872 293.5,341C 293.833,341.333 294.167,341.667 294.5,342C 291.876,342.576 291.209,343.91 292.5,346C 291.292,348.25 289.959,350.417 288.5,352.5C 288.709,353.086 289.043,353.586 289.5,354C 287.574,354.422 286.574,355.589 286.5,357.5C 285.426,361.964 284.093,366.297 282.5,370.5C 282.167,369.167 281.833,369.167 281.5,370.5C 280.295,371.672 280.295,373.005 281.5,374.5C 281.058,375.739 280.391,376.739 279.5,377.5C 279.44,376.957 279.107,376.624 278.5,376.5C 274.221,385.006 271.554,394.006 270.5,403.5C 269.833,404.833 269.167,404.833 268.5,403.5C 268.88,401.302 268.213,399.635 266.5,398.5C 264.466,396.635 263.799,394.468 264.5,392C 263.667,391.167 262.833,390.333 262,389.5C 262.096,387.619 261.929,385.953 261.5,384.5C 260.083,380.683 258.416,376.517 256.5,372C 257.833,370.16 257.666,369.66 256,370.5C 257.26,367.845 256.426,366.012 253.5,365C 253.957,364.586 254.291,364.086 254.5,363.5C 251.998,360.311 250.665,356.978 250.5,353.5C 249.275,349.826 247.609,346.159 245.5,342.5C 243.392,339.315 241.392,335.648 239.5,331.5C 233.799,321.906 226.466,313.073 217.5,305C 218.654,304.086 218.487,303.253 217,302.5C 216.667,302.833 216.333,303.167 216,303.5C 215.097,302.299 213.931,301.465 212.5,301C 209.484,298.063 206.318,295.229 203,292.5C 202,292.5 201,292.5 200,292.5C 197.862,289.854 198.195,287.521 201,285.5C 201.333,285.833 201.667,286.167 202,286.5C 205.523,282.856 209.357,280.523 213.5,279.5C 217.865,276.682 222.198,273.015 226.5,268.5C 225.649,258.477 225.316,248.477 225.5,238.5C 226.952,237.06 227.952,235.394 228.5,233.5C 230.357,225.871 232.357,219.537 234.5,214.5C 233.697,213.577 233.53,212.577 234,211.5C 239.488,203.679 245.988,196.846 253.5,191C 254.793,190.51 256.127,190.343 257.5,190.5C 262.586,188.251 267.919,187.251 273.5,187.5C 274.936,187.245 276.436,186.912 278,186.5C 278.278,187.416 278.778,188.082 279.5,188.5 Z"/></g>
<g><path style="opacity:0.004" fill="#fefffe" d="M 281.5,188.5 C 282.833,189.167 282.833,189.167 281.5,188.5 Z"/></g>
<g><path style="opacity:0.004" fill="#fefffe" d="M 319.5,189.5 C 318.833,188.167 318.833,188.167 319.5,189.5 Z"/></g>
<g><path style="opacity:0.004" fill="#fefffe" d="M 169.5,191.5 C 168.833,192.167 168.833,192.167 169.5,191.5 Z"/></g>
<g><path style="opacity:0.004" fill="#fefffe" d="M 218.5,197.5 C 218.5,197.167 218.5,196.833 218.5,196.5C 221.167,196.833 221.167,197.167 218.5,197.5 Z"/></g>
<g><path style="opacity:0.004" fill="#fefffe" d="M 319.5,196.5 C 318.833,197.167 318.833,197.167 319.5,196.5 Z"/></g>
<g><path style="opacity:0.004" fill="#fefffe" d="M 361.5,196.5 C 361.833,196.5 362.167,196.5 362.5,196.5C 362.315,197.17 361.981,197.17 361.5,196.5 Z"/></g>
<g><path style="opacity:0.004" fill="#fefffe" d="M 178.5,197.5 C 177.833,198.167 177.833,198.167 178.5,197.5 Z"/></g>
<g><path style="opacity:0.004" fill="#fefffe" d="M 217.5,197.5 C 217.833,197.5 218.167,197.5 218.5,197.5C 218.315,198.17 217.981,198.17 217.5,197.5 Z"/></g>
<g><path style="opacity:0.004" fill="#fefffe" d="M 397.5,199.5 C 396.833,198.167 396.833,198.167 397.5,199.5 Z"/></g>
<g><path style="opacity:0.347" fill="#c0bfc1" d="M 180.5,197.5 C 191.301,199.093 201.967,199.76 212.5,199.5C 207.735,201.108 202.735,202.108 197.5,202.5C 194.151,202.108 190.817,201.608 187.5,201C 184.719,200.478 182.385,199.311 180.5,197.5 Z"/></g>
<g><path style="opacity:0.335" fill="#bdbdbe" d="M 321.5,196.5 C 328.631,198.214 335.964,199.214 343.5,199.5C 349.015,199.263 354.348,198.263 359.5,196.5C 358.251,198.136 356.584,199.303 354.5,200C 350.21,201.048 345.876,201.882 341.5,202.5C 339.407,202.514 337.574,201.848 336,200.5C 330.672,201.125 325.839,199.792 321.5,196.5 Z"/></g>
<g><path style="opacity:0.004" fill="#fefffe" d="M 152.5,211.5 C 151.833,210.167 151.833,210.167 152.5,211.5 Z"/></g>
<g><path style="opacity:0.004" fill="#fefffe" d="M 303.5,210.5 C 304.833,211.167 304.833,211.167 303.5,210.5 Z"/></g>
<g><path style="opacity:0.004" fill="#fefffe" d="M 304.5,212.5 C 305.833,213.167 305.833,213.167 304.5,212.5 Z"/></g>
<g><path style="opacity:0.027" fill="#b5b5b6" d="M 234.5,214.5 C 232.357,219.537 230.357,225.871 228.5,233.5C 229.127,230.911 229.127,228.411 228.5,226C 229.022,225.05 229.689,224.216 230.5,223.5C 229.892,221.316 230.559,219.316 232.5,217.5C 231.361,215.604 232.027,214.604 234.5,214.5 Z"/></g>
<g><path style="opacity:0.004" fill="#fefffe" d="M 189.5,227.5 C 192.64,226.359 195.973,226.192 199.5,227C 196.183,227.498 192.85,227.665 189.5,227.5 Z"/></g>
<g><path style="opacity:0.004" fill="#fefffe" d="M 339.5,227.5 C 342.304,226.362 345.304,226.195 348.5,227C 345.518,227.498 342.518,227.665 339.5,227.5 Z"/></g>
<g><path style="opacity:0.004" fill="#fefffe" d="M 226.5,232.5 C 227.525,232.897 227.692,233.563 227,234.5C 226.536,233.906 226.369,233.239 226.5,232.5 Z"/></g>
<g><path style="opacity:0.713" fill="#bcbcbd" d="M 191.5,228.5 C 194.777,228.216 197.943,228.549 201,229.5C 200.665,236.584 199.998,243.917 199,251.5C 198.667,253.5 198.333,255.5 198,257.5C 197.617,258.056 197.117,258.389 196.5,258.5C 196.5,257.833 196.167,257.5 195.5,257.5C 195.783,256.711 196.283,256.044 197,255.5C 197.134,246.733 197.967,238.066 199.5,229.5C 196.615,229.806 193.948,229.473 191.5,228.5 Z"/></g>
<g><path style="opacity:0.004" fill="#fefffe" d="M 195.5,258.5 C 195.833,258.5 196.167,258.5 196.5,258.5C 196.315,259.17 195.981,259.17 195.5,258.5 Z"/></g>
<g><path style="opacity:0.004" fill="#fefffe" d="M 185.5,264.5 C 185.833,264.5 186.167,264.5 186.5,264.5C 186.315,265.17 185.981,265.17 185.5,264.5 Z"/></g>
<g><path style="opacity:0.004" fill="#fefffe" d="M 353.5,264.5 C 352.833,265.167 352.833,265.167 353.5,264.5 Z"/></g>
<g><path style="opacity:0.004" fill="#fefffe" d="M 362.5,270.5 C 362.833,270.5 363.167,270.5 363.5,270.5C 363.315,271.17 362.981,271.17 362.5,270.5 Z"/></g>
<g><path style="opacity:0.004" fill="#fefffe" d="M 213.5,279.5 C 212.833,278.167 212.833,278.167 213.5,279.5 Z"/></g>
<g><path style="opacity:0.004" fill="#fefffe" d="M 154.5,282.5 C 154.833,282.5 155.167,282.5 155.5,282.5C 155.315,283.17 154.981,283.17 154.5,282.5 Z"/></g>
<g><path style="opacity:0.004" fill="#fefffe" d="M 390.5,286.5 C 390.833,286.5 391.167,286.5 391.5,286.5C 391.315,287.17 390.981,287.17 390.5,286.5 Z"/></g>
<g><path style="opacity:0.004" fill="#fefffe" d="M 145.5,287.5 C 146.833,288.167 146.833,288.167 145.5,287.5 Z"/></g>
<g><path style="opacity:0.004" fill="#fefffe" d="M 393.5,287.5 C 392.833,288.167 392.833,288.167 393.5,287.5 Z"/></g>
<g><path style="opacity:0.004" fill="#fefffe" d="M 336.5,292.5 C 336.833,292.5 337.167,292.5 337.5,292.5C 337.315,293.17 336.981,293.17 336.5,292.5 Z"/></g>
<g><path style="opacity:0.004" fill="#fefffe" d="M 175.5,307.5 C 174.833,306.167 174.833,306.167 175.5,307.5 Z"/></g>
<g><path style="opacity:0.004" fill="#fefffe" d="M 456.5,321.5 C 456.343,320.127 456.51,318.793 457,317.5C 457.765,319.066 457.598,320.399 456.5,321.5 Z"/></g>
<g><path style="opacity:0.004" fill="#fefffe" d="M 80.5,321.5 C 81.5735,322.251 81.7401,323.251 81,324.5C 80.5172,323.552 80.3505,322.552 80.5,321.5 Z"/></g>
<g><path style="opacity:0.004" fill="#fefffe" d="M 239.5,331.5 C 238.833,332.167 238.833,332.167 239.5,331.5 Z"/></g>
<g><path style="opacity:0.004" fill="#fefffe" d="M 298.5,332.5 C 299.833,333.167 299.833,333.167 298.5,332.5 Z"/></g>
<g><path style="opacity:0.004" fill="#fefffe" d="M 245.5,342.5 C 244.833,343.167 244.833,343.167 245.5,342.5 Z"/></g>
<g><path style="opacity:0.004" fill="#fefffe" d="M 461.5,348.5 C 461.369,347.761 461.536,347.094 462,346.5C 462.692,347.437 462.525,348.103 461.5,348.5 Z"/></g>
<g><path style="opacity:0.004" fill="#fefffe" d="M 462.5,349.5 C 463.525,349.897 463.692,350.563 463,351.5C 462.536,350.906 462.369,350.239 462.5,349.5 Z"/></g>
<g><path style="opacity:0.004" fill="#fefffe" d="M 74.5,352.5 C 75.8333,353.167 75.8333,353.167 74.5,352.5 Z"/></g>
<g><path style="opacity:0.004" fill="#fefffe" d="M 219.5,352.5 C 220.833,353.167 220.833,353.167 219.5,352.5 Z"/></g>
<g><path style="opacity:0.004" fill="#fefffe" d="M 250.5,353.5 C 249.833,354.167 249.833,354.167 250.5,353.5 Z"/></g>
<g><path style="opacity:0.004" fill="#fefffe" d="M 286.5,357.5 C 287.833,358.167 287.833,358.167 286.5,357.5 Z"/></g>
<g><path style="opacity:0.004" fill="#fefffe" d="M 224.5,362.5 C 225.833,363.167 225.833,363.167 224.5,362.5 Z"/></g>
<g><path style="opacity:0.004" fill="#fefffe" d="M 225.5,364.5 C 226.833,365.167 226.833,365.167 225.5,364.5 Z"/></g>
<g><path style="opacity:0.004" fill="#fefffe" d="M 313.5,365.5 C 312.833,364.167 312.833,364.167 313.5,365.5 Z"/></g>
<g><path style="opacity:0.004" fill="#fefffe" d="M 467.5,371.5 C 467.369,370.761 467.536,370.094 468,369.5C 468.692,370.437 468.525,371.103 467.5,371.5 Z"/></g>
<g><path style="opacity:0.004" fill="#fefffe" d="M 281.5,370.5 C 281.833,370.5 282.167,370.5 282.5,370.5C 282.167,373.167 281.833,373.167 281.5,370.5 Z"/></g>
<g><path style="opacity:0.004" fill="#fefffe" d="M 70.5,373.5 C 69.475,373.103 69.3083,372.437 70,371.5C 70.4643,372.094 70.631,372.761 70.5,373.5 Z"/></g>
<g><path style="opacity:0.004" fill="#fefffe" d="M 468.5,372.5 C 469.833,373.167 469.833,373.167 468.5,372.5 Z"/></g>
<g><path style="opacity:0.004" fill="#fefffe" d="M 306.5,381.5 C 305.475,381.103 305.308,380.437 306,379.5C 306.464,380.094 306.631,380.761 306.5,381.5 Z"/></g>
<g><path style="opacity:0.604" fill="#b6b5b7" d="M 279.5,377.5 C 278.004,381.01 277.004,384.677 276.5,388.5C 276.167,387.167 275.833,387.167 275.5,388.5C 274.392,389.823 274.392,391.323 275.5,393C 273.818,396.64 272.151,400.14 270.5,403.5C 271.554,394.006 274.221,385.006 278.5,376.5C 279.107,376.624 279.44,376.957 279.5,377.5 Z"/></g>
<g><path style="opacity:0.004" fill="#fefffe" d="M 261.5,384.5 C 260.833,385.167 260.833,385.167 261.5,384.5 Z"/></g>
<g><path style="opacity:0.004" fill="#fefffe" d="M 472.5,385.5 C 473.833,386.167 473.833,386.833 472.5,387.5C 472.5,386.833 472.5,386.167 472.5,385.5 Z"/></g>
<g><path style="opacity:0.004" fill="#fefffe" d="M 64.5,387.5 C 65.8333,388.167 65.8333,388.167 64.5,387.5 Z"/></g>
<g><path style="opacity:0.004" fill="#fefffe" d="M 275.5,388.5 C 275.833,388.5 276.167,388.5 276.5,388.5C 276.167,391.167 275.833,391.167 275.5,388.5 Z"/></g>
<g><path style="opacity:0.004" fill="#fefffe" d="M 64.5,391.5 C 63.8333,390.167 63.8333,390.167 64.5,391.5 Z"/></g>
<g><path style="opacity:0.004" fill="#fefffe" d="M 237.5,392.5 C 237.167,392.5 236.833,392.5 236.5,392.5C 236.833,389.833 237.167,389.833 237.5,392.5 Z"/></g>
<g><path style="opacity:0.004" fill="#fefffe" d="M 237.5,392.5 C 238.833,393.167 238.833,393.167 237.5,392.5 Z"/></g>
<g><path style="opacity:0.004" fill="#fefffe" d="M 110.5,398.5 C 109.833,399.167 109.833,399.167 110.5,398.5 Z"/></g>
<g><path style="opacity:0.004" fill="#fefffe" d="M 427.5,399.5 C 427.833,399.5 428.167,399.5 428.5,399.5C 428.315,400.17 427.981,400.17 427.5,399.5 Z"/></g>
<g><path style="opacity:0.443" fill="#7c7b7e" d="M 266.5,398.5 C 268.213,399.635 268.88,401.302 268.5,403.5C 267.761,403.631 267.094,403.464 266.5,403C 266.966,401.701 266.966,400.201 266.5,398.5 Z"/></g>
<g><path style="opacity:0.004" fill="#fefffe" d="M 478.5,402.5 C 479.833,403.167 479.833,403.167 478.5,402.5 Z"/></g>
<g><path style="opacity:0.035" fill="#b2b2b4" d="M 463.5,415.5 C 462.883,415.611 462.383,415.944 462,416.5C 457.726,412.198 453.559,408.531 449.5,405.5C 449.167,404.167 448.833,404.167 448.5,405.5C 447.833,405.5 447.5,405.167 447.5,404.5C 448.251,403.427 449.251,403.26 450.5,404C 455.027,407.699 459.361,411.532 463.5,415.5 Z"/></g>
<g><path style="opacity:0.004" fill="#fefffe" d="M 448.5,405.5 C 448.833,405.5 449.167,405.5 449.5,405.5C 449.315,406.17 448.981,406.17 448.5,405.5 Z"/></g>
<g><path style="opacity:0.004" fill="#fefffe" d="M 242.5,407.5 C 243.833,408.167 243.833,408.167 242.5,407.5 Z"/></g>
<g><path style="opacity:0.004" fill="#fefffe" d="M 484.5,416.5 C 485.833,417.167 485.833,417.167 484.5,416.5 Z"/></g>
<g><path style="opacity:0.004" fill="#fefffe" d="M 485.5,418.5 C 486.833,419.167 486.833,419.167 485.5,418.5 Z"/></g>
<g><path style="opacity:0.004" fill="#fefffe" d="M 67.5,422.5 C 68.8333,423.167 68.8333,423.167 67.5,422.5 Z"/></g>
<g><path style="opacity:0.004" fill="#fefffe" d="M 247.5,424.5 C 247.369,423.761 247.536,423.094 248,422.5C 248.692,423.437 248.525,424.103 247.5,424.5 Z"/></g>
<g><path style="opacity:0.004" fill="#fefffe" d="M 346.5,422.5 C 345.833,423.167 345.833,423.167 346.5,422.5 Z"/></g>
<g><path style="opacity:0.004" fill="#fefffe" d="M 290.5,426.5 C 289.475,426.103 289.308,425.437 290,424.5C 290.464,425.094 290.631,425.761 290.5,426.5 Z"/></g>
<g><path style="opacity:0.004" fill="#fefffe" d="M 200.5,426.5 C 199.833,427.167 199.833,427.167 200.5,426.5 Z"/></g>
<g><path style="opacity:0.004" fill="#fefffe" d="M 338.5,426.5 C 339.833,427.167 339.833,427.167 338.5,426.5 Z"/></g>
<g><path style="opacity:0.004" fill="#fefffe" d="M 61.5,427.5 C 61.8333,427.5 62.1667,427.5 62.5,427.5C 62.3147,428.17 61.9813,428.17 61.5,427.5 Z"/></g>
<g><path style="opacity:0.004" fill="#fefffe" d="M 410.5,427.5 C 411.833,428.167 411.833,428.167 410.5,427.5 Z"/></g>
<g><path style="opacity:0.004" fill="#fefffe" d="M 60.5,428.5 C 60.8333,428.5 61.1667,428.5 61.5,428.5C 61.3147,429.17 60.9813,429.17 60.5,428.5 Z"/></g>
<g><path style="opacity:0.004" fill="#fefffe" d="M 483.5,433.5 C 483.833,433.5 484.167,433.5 484.5,433.5C 484.315,434.17 483.981,434.17 483.5,433.5 Z"/></g>
<g><path style="opacity:0.914" fill="#a5a5a7" d="M 48.5,431.5 C 48.5,432.833 48.5,434.167 48.5,435.5C 49.791,435.263 50.791,435.596 51.5,436.5C 49.9921,437.932 47.8254,439.266 45,440.5C 44.5,440 44,439.5 43.5,439C 44.2886,436.291 45.9553,433.791 48.5,431.5 Z"/></g>
<g><path style="opacity:0.369" fill="#bababb" d="M 489.5,429.5 C 491.601,432.179 493.601,435.012 495.5,438C 494.874,438.75 494.374,439.584 494,440.5C 493.259,439.359 492.425,439.359 491.5,440.5C 490.614,439.675 490.281,438.675 490.5,437.5C 487.682,437.343 485.682,436.009 484.5,433.5C 484.5,433.167 484.5,432.833 484.5,432.5C 486.394,433.048 488.06,434.048 489.5,435.5C 489.92,433.674 489.92,431.674 489.5,429.5 Z"/></g>
<g><path style="opacity:0.004" fill="#fefffe" d="M 253.5,442.5 C 254.833,443.167 254.833,443.167 253.5,442.5 Z"/></g>
<g><path style="opacity:0.004" fill="#fefffe" d="M 400.5,443.5 C 401.833,444.167 401.833,444.167 400.5,443.5 Z"/></g>
<g><path style="opacity:0.004" fill="#fefffe" d="M 168.5,444.5 C 169.833,445.167 169.833,445.167 168.5,444.5 Z"/></g>
<g><path style="opacity:0.004" fill="#fefffe" d="M 211.5,444.5 C 210.833,445.167 210.833,445.167 211.5,444.5 Z"/></g>
<g><path style="opacity:0.004" fill="#fefffe" d="M 327.5,444.5 C 328.833,445.167 328.833,445.167 327.5,444.5 Z"/></g>
<g><path style="opacity:0.004" fill="#fefffe" d="M 399.5,444.5 C 399.833,444.5 400.167,444.5 400.5,444.5C 400.315,445.17 399.981,445.17 399.5,444.5 Z"/></g>
<g><path style="opacity:0.004" fill="#fefffe" d="M 157.5,455.5 C 157.833,455.5 158.167,455.5 158.5,455.5C 158.315,456.17 157.981,456.17 157.5,455.5 Z"/></g>
<g><path style="opacity:0.004" fill="#fefffe" d="M 156.5,456.5 C 156.833,456.5 157.167,456.5 157.5,456.5C 157.315,457.17 156.981,457.17 156.5,456.5 Z"/></g>
<g><path style="opacity:0.006" fill="#fefffe" d="M 258.5,458.5 C 259.833,459.167 259.833,459.833 258.5,460.5C 258.5,459.833 258.5,459.167 258.5,458.5 Z"/></g>
<g><path style="opacity:0.004" fill="#fefffe" d="M 385.5,460.5 C 385.833,460.5 386.167,460.5 386.5,460.5C 386.315,461.17 385.981,461.17 385.5,460.5 Z"/></g>
<g><path style="opacity:0.004" fill="#fefffe" d="M 278.5,461.5 C 279.833,462.167 279.833,462.167 278.5,461.5 Z"/></g>
<g><path style="opacity:0.004" fill="#fefffe" d="M 387.5,461.5 C 388.833,462.167 388.833,462.167 387.5,461.5 Z"/></g>
<g><path style="opacity:0.004" fill="#fefffe" d="M 259.5,462.5 C 260.833,463.167 260.833,463.167 259.5,462.5 Z"/></g>
<g><path style="opacity:0.004" fill="#fefffe" d="M 277.5,464.5 C 278.833,465.167 278.833,465.167 277.5,464.5 Z"/></g>
<g><path style="opacity:0.004" fill="#fefffe" d="M 228.5,472.5 C 227.833,473.167 227.833,473.167 228.5,472.5 Z"/></g>
<g><path style="opacity:0.004" fill="#fefffe" d="M 309.5,473.5 C 310.833,474.167 310.833,474.167 309.5,473.5 Z"/></g>
<g><path style="opacity:0.004" fill="#fefffe" d="M 273.5,483.5 C 272.475,483.103 272.308,482.437 273,481.5C 273.464,482.094 273.631,482.761 273.5,483.5 Z"/></g>
<g><path style="opacity:0.004" fill="#fefffe" d="M 272.5,486.5 C 271.475,486.103 271.308,485.437 272,484.5C 272.464,485.094 272.631,485.761 272.5,486.5 Z"/></g>
<g><path style="opacity:0.004" fill="#fefffe" d="M 298.5,491.5 C 299.833,492.167 299.833,492.167 298.5,491.5 Z"/></g>
<g><path style="opacity:0.004" fill="#fefffe" d="M 276.5,527.5 C 277.833,528.167 277.833,528.167 276.5,527.5 Z"/></g>
<g><path style="opacity:0.004" fill="#fefffe" d="M 275.5,528.5 C 275.833,528.5 276.167,528.5 276.5,528.5C 276.315,529.17 275.981,529.17 275.5,528.5 Z"/></g>
</svg>
