<svg width="219.677" height="67.543" viewBox="0 0 58.123 17.871" xml:space="preserve" xmlns="http://www.w3.org/2000/svg"><path d="M25.922 61.919c-.906.906-2.025 1.37-3.357 1.37-1.003 0-1.813-.27-2.43-.81v4.34h-2.74V53.623h2.7s1.448-.232 2.47-.232c1.332 0 2.45.463 3.357 1.37s1.37 2.103 1.37 3.588c0 1.467-.463 2.663-1.37 3.57zm-5.826-3.57c0 .714.212 1.312.617 1.775a2.05 2.05 0 0 0 1.582.695c.637 0 1.158-.232 1.563-.695.424-.463.637-1.06.637-1.775 0-.713-.213-1.311-.637-1.774-.405-.463-.926-.695-1.563-.695a2.05 2.05 0 0 0-1.582.695c-.405.463-.617 1.06-.617 1.774z" style="fill:#28d123;fill-rule:evenodd;stroke-width:.352778" transform="translate(-17.395 -48.948)"/><path d="M40.41 53.623h2.76v9.453h-2.76v-.694c-.732.598-1.6.906-2.623.906-1.37 0-2.547-.463-3.511-1.408-.965-.945-1.447-2.122-1.447-3.53 0-1.409.482-2.586 1.447-3.531.964-.945 2.141-1.428 3.51-1.428 1.14 0 2.625.232 2.625.232zm-.675 6.386a2.47 2.47 0 0 0 .676-1.717c0-1.312-.946-2.354-2.412-2.354-.675 0-1.235.231-1.678.694a2.316 2.316 0 0 0-.656 1.66c0 .636.231 1.215.675 1.697a2.18 2.18 0 0 0 1.66.733c.713 0 1.292-.231 1.735-.713z" style="fill:#28d123;fill-rule:evenodd;stroke-width:.352778" transform="translate(-17.395 -48.948)"/><path d="M57.837 56.15v6.926h-2.74v-9.453h5.797v2.527z" style="fill:#28d123;fill-rule:evenodd;stroke-width:.352778" transform="translate(-17.395 -48.948)"/><path d="M26.037 49.571V52.1h2.644v10.977h2.74V49.571Z" style="fill:#28d123;fill-rule:evenodd;stroke-width:.352778" transform="translate(-17.395 -48.948)"/><path d="M63.695 48.948c1.022 0 1.804.783 1.804 1.805 0 .978-.826 1.782-1.804 1.782a1.79 1.79 0 0 1-1.783-1.782c0-1.022.805-1.805 1.783-1.805z" style="fill:#28d123;fill-rule:evenodd;stroke-width:.352778" transform="translate(-17.395 -48.948)"/><path d="M62.326 63.076v-9.453h2.76v9.453z" style="fill:#28d123;fill-rule:evenodd;stroke-width:.352778" transform="translate(-17.395 -48.948)"/><path d="m69.364 53.623 1.427 2.411 1.428-2.411h3.087l-2.971 4.591 3.183 4.862H72.45l-1.659-2.681-1.64 2.681h-3.087l3.184-4.862-2.971-4.591z" style="fill:#28d123;fill-rule:evenodd;stroke-width:.352778" transform="translate(-17.395 -48.948)"/><path d="M49.107 66.82h-2.894l1.543-3.744-3.685-9.453h3.049l2.122 5.845 2.2-5.845h2.932z" style="fill:#28d123;fill-rule:evenodd;stroke-width:.352778" transform="translate(-17.395 -48.948)"/></svg>