<svg version="1.1" id="Layer_1" xmlns="http://www.w3.org/2000/svg" xmlns:xlink="http://www.w3.org/1999/xlink" x="0px" y="0px" viewBox="0 0 184.7 58.8" style="enable-background:new 0 0 184.7 58.8;" xml:space="preserve">
 <g>
  <path d="M56.6,29.4C56-0.8,16-11.9,0.6,16.2c0.7,0.6,1.7,1.3,2.2,1.7c-1.1,2.4-2,5-2.4,7.4C0.2,27,0,28.7,0,30.5
		c0,15.6,12.7,28.3,28.3,28.3s28.3-12.7,28.3-28.3C56.6,30.1,56.6,29.8,56.6,29.4L56.6,29.4z M7.1,34.4c-0.4,3-0.2,4.1-0.2,4.5
		l-0.7,0.2C6,38.5,5.2,36.8,5,34.4c-0.7-9.1,5.4-17.3,14.9-18.8c8.8-1.3,16.9,4.1,19,11.7l-0.7,0.2c-0.2-0.2-0.6-0.7-1.9-2.2
		C25.9,14.7,9.3,19.5,7.1,34.4L7.1,34.4z M33.9,39.5c-1.5,2-3.7,3.4-6.3,3.4c-4.3,0-7.8-3.5-7.8-7.8c0-4.1,3.2-7.4,7.3-7.6l0,0
		c2.4-0.2,4.8,1.3,6,3.4c1.1,2.4,0.7,5.2-1.1,7.3C32.6,38.5,33.3,39.1,33.9,39.5L33.9,39.5z M50.1,39.8C46,49.1,37.6,54,28.7,53.8
		C11.4,52.9,6.3,33.1,17.9,25.9l0.6,0.6c-0.2,0.2-0.9,0.7-1.9,3c-1.3,2.6-1.7,5-1.5,6.7c0.9,14,20.3,16.8,27,3
		c8.4-19-14.2-38.2-34.3-23.5l-0.4-0.6c5.2-8.2,15.5-11.9,25.3-9.5C47.9,9.5,56,25.1,50.1,39.8z">
  </path>
  <path d="M84.2,18.2v13c0,5.2-3.2,9.1-8.9,9.1c-5.8,0-8.9-3.9-8.9-9.1v-13h4.7v12.7c0,3.2,1.5,5,4.3,5c2.8,0,4.3-1.9,4.3-5V18.2
		H84.2z M101.8,33.9c0,3.7-3,6.5-7.8,6.5h-7.6v-22h7.3c4.3,0,7.1,2,7.1,5.2c0,2.4-1.1,3.9-2.8,4.7C100.2,29.2,101.8,30.9,101.8,33.9
		L101.8,33.9z M91.2,22.7v4.7h2.4c1.5,0,2.4-0.9,2.4-2.2s-0.9-2.2-2.4-2.2L91.2,22.7L91.2,22.7z M93.8,36.1c2,0,3.2-0.9,3.2-2.8
		c0-1.9-1.1-2.8-3.2-2.8h-2.6v5.4L93.8,36.1L93.8,36.1z M103.7,18.4h4.7v21.8h-4.7V18.4z M119.7,27.4c3.7,1.3,5.6,3,5.6,6.3
		c0,4.5-3.5,7.1-7.6,7.1c-3.7,0-6.7-1.7-7.8-4.8l3.7-2.8c0.7,2,2.4,3.2,4.3,3.2c1.5,0,2.6-0.9,2.6-2.2c0-1.3-0.9-2-3.9-3.2
		c-3.4-1.3-6-3-6-6.5s3-6.1,7.1-6.1c3.4,0,6,1.3,7.1,3.9l-3.7,2.6c-0.7-1.7-1.9-2.6-3.5-2.6c-1.5,0-2.4,0.7-2.4,1.9
		C115.3,25.3,116.6,26.2,119.7,27.4z M149,29.4c0,6.3-4.7,11.2-11.2,11.2c-6.7,0-11.2-4.8-11.2-10.4c0-3.7,1.5-6.5,3.5-8.2l-0.7-0.7
		c1.7-1.7,4.7-3,8.2-3C144.3,18,149,23.1,149,29.4L149,29.4z M144.1,29.4c0-3.9-2.4-6.7-6.3-6.7c-2.2,0-3.9,0.9-4.8,1.9l0.7,0.7
		c-1.1,0.9-2.2,2.2-2.2,4.7c0,3.4,2.4,6.1,6.3,6.1S144.1,33.3,144.1,29.4L144.1,29.4z M155.7,23.1v5h9.3v3.5h-9.3v8.6h-4.8V18.4
		h14.9v4.5h-10.1V23.1z M184.7,23.1h-6.1v17.3h-4.7V23.1h-6.3v-4.7h16.9v4.7H184.7z">
  </path>
 </g>
</svg>